Coordinates
version=1
nRows=24
nColumns=24
inDegrees=yes

Units are S.I. units (second, meters, Newtons, ...)
Angles are in degrees.

endheader
time	pelvis_tilt	pelvis_list	pelvis_rotation	pelvis_tx	pelvis_ty	pelvis_tz	hip_flexion_r	hip_adduction_r	hip_rotation_r	knee_angle_r	ankle_angle_r	subtalar_angle_r	mtp_angle_r	hip_flexion_l	hip_adduction_l	hip_rotation_l	knee_angle_l	ankle_angle_l	subtalar_angle_l	mtp_angle_l	lumbar_extension	lumbar_bending	lumbar_rotation
      0.96300000	     -3.59366501	     -2.23647178	     -0.11378944	     -0.39403746	      0.99380918	      0.35079752	     12.92185859	      6.88247249	     -0.13161982	    -17.43849163	      6.64974529	     -9.12434534	      3.48733554	     22.82983531	     -3.34393065	      0.06364271	    -69.74690888	     -1.60110706	    -13.05898170	     -1.45937056	      2.92688400	      5.68178986	      3.05622610
      0.96716667	     -3.60153890	     -2.18641020	     -0.20840403	     -0.38953303	      0.99424733	      0.35104715	     12.48288367	      6.83538380	     -0.12818060	    -17.13188791	      6.69047113	     -8.94437397	      3.46155991	     23.40785902	     -3.31071077	      0.00539186	    -69.45994304	     -1.09266367	    -13.06447863	     -1.49748012	      2.85977791	      5.63094267	      3.15441943
      0.97133333	     -3.57529616	     -2.14451687	     -0.27797995	     -0.38502021	      0.99471409	      0.35128381	     11.99332054	      6.79088599	     -0.15276948	    -16.79205249	      6.73762290	     -8.66661215	      3.41931577	     23.94170612	     -3.28106082	     -0.02099561	    -69.13234921	     -0.60305924	    -12.92105081	     -1.56824107	      2.74559208	      5.56290795	      3.32479644
      0.97550000	     -3.57875417	     -2.10152071	     -0.37316200	     -0.38052032	      0.99510452	      0.35151965	     11.55127004	      6.74745217	     -0.15026852	    -16.48589577	      6.77575162	     -8.46620470	      3.39788791	     24.49058068	     -3.25536304	     -0.07325873	    -68.76386116	     -0.10295252	    -12.86426667	     -1.60471648	      2.67046882	      5.51935051	      3.42596550
      0.97966667	     -3.56395624	     -2.06325596	     -0.44091600	     -0.37601232	      0.99549167	      0.35173486	     11.08106796	      6.70250932	     -0.18244870	    -16.16109506	      6.83499418	     -8.18938136	      3.36815429	     25.01307631	     -3.22822866	     -0.09571460	    -68.35605142	      0.34718830	    -12.68848072	     -1.66387870	      2.57349842	      5.46217335	      3.58305809
      0.98383333	     -3.59702555	     -2.01121957	     -0.51054327	     -0.37151455	      0.99581349	      0.35192140	     10.66483677	      6.64624190	     -0.17355208	    -15.84537396	      6.91998097	     -8.07150134	      3.36481459	     25.56953756	     -3.17011370	     -0.10882062	    -67.89113548	      0.70439068	    -12.69872975	     -1.67164062	      2.55222909	      5.39078083	      3.62847692
      0.98800000	     -3.55144927	     -1.98500992	     -0.61348740	     -0.36700069	      0.99617081	      0.35217208	     10.17260238	      6.61439436	     -0.19886992	    -15.54082598	      6.92146462	     -7.73442660	      3.35184688	     26.02410042	     -3.18170372	     -0.17439324	    -67.41266108	      1.25796426	    -12.38840021	     -1.70032645	      2.40494023	      5.36445766	      3.79785470
      0.99216667	     -3.54821952	     -1.94136725	     -0.68969801	     -0.36250985	      0.99645545	      0.35236098	      9.72639345	      6.56010389	     -0.21917166	    -15.23922527	      6.98455641	     -7.47477267	      3.34428709	     26.51664026	     -3.14426407	     -0.19777184	    -66.88451888	      1.67502536	    -12.22041163	     -1.72720758	      2.31352590	      5.30441178	      3.92134788
      0.99633333	     -3.53223550	     -1.90312720	     -0.76978344	     -0.35799029	      0.99675092	      0.35253769	      9.26354001	      6.50748805	     -0.25735444	    -14.93220863	      7.04119080	     -7.18839279	      3.33924372	     26.97263339	     -3.11582709	     -0.22767997	    -66.30580572	      2.06494292	    -12.00251316	     -1.75671834	      2.22940978	      5.26495231	      4.05555895
      1.00050000	     -3.52206098	     -1.87702416	     -0.83711203	     -0.35348368	      0.99699162	      0.35271222	      8.80717118	      6.46693211	     -0.30668840	    -14.62528115	      7.11104509	     -6.89950642	      3.33801741	     27.43081875	     -3.09619768	     -0.23882520	    -65.70193385	      2.42792395	    -11.77760266	     -1.79333319	      2.14412288	      5.22595631	      4.18684292
      1.00466667	     -3.50964798	     -1.82569426	     -0.92961416	     -0.34896923	      0.99725004	      0.35290076	      8.35032763	      6.40294943	     -0.30747748	    -14.32308516	      7.15600565	     -6.66173138	      3.34140037	     27.85333400	     -3.05617402	     -0.27808424	    -65.03440197	      2.79407863	    -11.56515639	     -1.81230549	      2.05726195	      5.17005712	      4.28210474
      1.00883333	     -3.51549448	     -1.80786024	     -1.00860011	     -0.34446167	      0.99740532	      0.35308219	      7.91254983	      6.37334185	     -0.33075767	    -14.01857001	      7.21372961	     -6.40416035	      3.34940139	     28.29688223	     -3.04956436	     -0.29387495	    -64.35804956	      3.13860723	    -11.30970423	     -1.82896300	      1.99412715	      5.14832442	      4.39635639
      1.01300000	     -3.49465781	     -1.77002768	     -1.08917630	     -0.33994301	      0.99759873	      0.35325299	      7.44503182	      6.31858646	     -0.35696038	    -13.71231451	      7.27113636	     -6.14541275	      3.36121843	     28.68577548	     -3.02110888	     -0.31983506	    -63.62530630	      3.45841264	    -11.05385910	     -1.84378704	      1.89816012	      5.09988673	      4.51054187
      1.01716667	     -3.49369075	     -1.74762370	     -1.17205495	     -0.33542612	      0.99772918	      0.35343076	      6.99959650	      6.28196860	     -0.37441583	    -13.40672256	      7.32389801	     -5.88609340	      3.37703802	     29.08376372	     -3.01161857	     -0.34224455	    -62.86386614	      3.75808041	    -10.79372860	     -1.85575115	      1.82619492	      5.07023398	      4.62300781
      1.02133333	     -3.50112568	     -1.71435137	     -1.25458630	     -0.33091213	      0.99782239	      0.35359271	      6.56787225	      6.23141759	     -0.39414939	    -13.11053617	      7.38435179	     -5.64014617	      3.39535598	     29.47244994	     -2.98607614	     -0.36359443	    -62.06054123	      4.02935299	    -10.54569157	     -1.86477894	      1.76412444	      5.03028839	      4.72571041
      1.02550000	     -3.48734706	     -1.68891635	     -1.33816158	     -0.32638652	      0.99791505	      0.35376628	      6.11090569	      6.18815155	     -0.42307959	    -12.80886124	      7.44521364	     -5.37246572	      3.41925558	     29.82081957	     -2.97460858	     -0.39104725	    -61.22237312	      4.28579027	    -10.28529269	     -1.87352924	      1.68207503	      4.99744195	      4.83955102
      1.02966667	     -3.47932038	     -1.65792231	     -1.42292462	     -0.32185457	      0.99798665	      0.35393016	      5.66087629	      6.13792556	     -0.44166848	    -12.50856344	      7.50614494	     -5.12049895	      3.44594922	     30.15412909	     -2.95534990	     -0.41919621	    -60.34002502	      4.51114881	    -10.04229698	     -1.88061979	      1.60801681	      4.95686307	      4.94368152
      1.03383333	     -3.48080919	     -1.64225558	     -1.50829682	     -0.31733015	      0.99800375	      0.35409625	      5.22163869	      6.10555841	     -0.45385992	    -12.20798151	      7.56565095	     -4.87394539	      3.47499460	     30.48603109	     -2.95404304	     -0.44558403	    -59.43220655	      4.71976963	     -9.79931489	     -1.88536214	      1.54037220	      4.93389854	      5.04369750
      1.03800000	     -3.50112558	     -1.63013191	     -1.59391517	     -0.31280914	      0.99794348	      0.35425934	      4.80951069	      6.07528589	     -0.47256555	    -11.92002991	      7.63259928	     -4.63857265	      3.50758679	     30.82506088	     -2.95878363	     -0.47355940	    -58.49809869	      4.90919720	     -9.56961590	     -1.88921370	      1.49660000	      4.91991029	      5.13954028
      1.04216667	     -3.49450348	     -1.60731472	     -1.68056683	     -0.30827325	      0.99791620	      0.35441709	      4.36711795	      6.03117744	     -0.49178871	    -11.62992437	      7.70409224	     -4.39395045	      3.54374265	     31.10906031	     -2.95232313	     -0.51090145	    -57.51448177	      5.07156465	     -9.35728443	     -1.89249169	      1.42377776	      4.89104147	      5.23546841
      1.04633333	     -3.50023361	     -1.59763559	     -1.76690900	     -0.30373344	      0.99782946	      0.35457603	      3.93912669	      6.00154406	     -0.50947499	    -11.34155996	      7.77722326	     -4.15382426	      3.58343521	     31.39369973	     -2.96322358	     -0.55177061	    -56.50691401	      5.21928025	     -9.15632635	     -1.89479537	      1.36289450	      4.87522452	      5.32843168
      1.05050000	     -3.50907966	     -1.58638766	     -1.85252660	     -0.29920037	      0.99772107	      0.35472367	      3.51837767	      5.97017987	     -0.51513985	    -11.05950466	      7.85709913	     -3.93355755	      3.62175978	     31.66096908	     -2.96861002	     -0.58835127	    -55.45845128	      5.33902400	     -8.98039956	     -1.89650647	      1.30806197	      4.85819880	      5.41127771
      1.05466667	     -3.50026901	     -1.57500748	     -1.93572783	     -0.29464205	      0.99760996	      0.35487098	      3.07582641	      5.93730214	     -0.52980461	    -10.77372043	      7.94229345	     -3.71188800	      3.66305270	     31.88883561	     -2.97586427	     -0.63506090	    -54.37566973	      5.44334389	     -8.82432662	     -1.89823838	      1.23514680	      4.83493388	      5.49731857
      1.05883333	     -3.51017613	     -1.57165470	     -2.02106444	     -0.29009056	      0.99741870	      0.35501859	      2.66120608	      5.91282865	     -0.54236172	    -10.50334945	      8.03380162	     -3.49444530	      3.70643070	     32.12459018	     -2.99562619	     -0.68666803	    -53.27205846	      5.53004213	     -8.69296482	     -1.89969987	      1.18097777	      4.82965444	      5.58058936
